<?xml version="1.0" standalone="no"?>
<!DOCTYPE svg PUBLIC "-//W3C//DTD SVG 20010904//EN"
 "http://www.w3.org/TR/2001/REC-SVG-20010904/DTD/svg10.dtd">
<svg version="1.0" xmlns="http://www.w3.org/2000/svg"
 width="356.000000pt" height="230.000000pt" viewBox="0 0 356.000000 230.000000"
 preserveAspectRatio="xMidYMid meet">

<g transform="translate(0.000000,230.000000) scale(0.100000,-0.100000)"
fill="#000000" stroke="none">
<path d="M200 1399 c0 -365 3 -459 13 -453 69 43 577 429 577 440 0 8 4 14 10
14 5 0 387 -283 847 -630 l837 -630 453 0 453 0 0 460 0 460 -93 -68 c-391
-289 -503 -374 -507 -388 -4 -11 -234 155 -857 620 l-852 636 -440 0 -441 0 0
-461z"/>
<path d="M2250 1669 c-140 -105 -256 -194 -257 -198 -1 -3 97 -80 217 -170
l220 -163 482 361 481 361 -444 0 -444 -1 -255 -190z"/>
<path d="M3100 1454 c-151 -113 -283 -211 -293 -218 -14 -11 -17 -25 -15 -70
l3 -57 295 218 295 218 3 58 c2 31 -1 57 -5 56 -4 0 -132 -93 -283 -205z"/>
<path d="M3090 1243 l-295 -218 -3 -58 c-2 -31 -1 -57 3 -57 3 0 566 413 593
435 2 2 2 28 0 60 l-3 57 -295 -219z"/>
<path d="M490 1067 l-285 -213 -3 -57 c-2 -31 1 -57 5 -56 4 0 136 96 293 213
l285 212 3 57 c2 31 -1 57 -5 56 -4 0 -136 -96 -293 -212z"/>
<path d="M3088 1039 l-298 -221 0 -55 c0 -31 4 -53 10 -51 5 2 140 100 300
217 l290 215 0 58 c0 32 -1 58 -2 58 -2 0 -137 -100 -300 -221z"/>
<path d="M492 864 l-292 -216 0 -59 0 -59 158 117 c86 64 219 162 294 217
l137 101 1 58 c0 31 -1 57 -3 57 -2 0 -134 -97 -295 -216z"/>
<path d="M495 665 l-290 -215 -3 -61 c-3 -58 -2 -60 16 -47 10 7 143 105 295
217 l277 205 0 58 c0 32 -1 58 -2 58 -2 0 -133 -97 -293 -215z"/>
<path d="M686 500 c-258 -193 -472 -352 -474 -355 -3 -3 197 -5 445 -5 l450 0
239 181 c131 99 243 184 247 188 6 7 -421 341 -435 341 -2 0 -215 -158 -472
-350z"/>
</g>
</svg>
